<?xml version="1.0" encoding="UTF-8" standalone="no"?>
<!-- Created with Inkscape (http://www.inkscape.org/) -->

<svg
   xmlns:osb="http://www.openswatchbook.org/uri/2009/osb"
   xmlns:dc="http://purl.org/dc/elements/1.1/"
   xmlns:cc="http://creativecommons.org/ns#"
   xmlns:rdf="http://www.w3.org/1999/02/22-rdf-syntax-ns#"
   xmlns:svg="http://www.w3.org/2000/svg"
   xmlns="http://www.w3.org/2000/svg"
   xmlns:sodipodi="http://sodipodi.sourceforge.net/DTD/sodipodi-0.dtd"
   xmlns:inkscape="http://www.inkscape.org/namespaces/inkscape"
   width="1000"
   height="300"
   id="svg2"
   version="1.1"
   inkscape:version="0.48.4 r9939"
   sodipodi:docname="BuTekLogo7.svg"
   inkscape:export-filename="X:\work\webDev\bostonmicrotek\logowar\images\logo\BuTek_logo8_942x280.png"
   inkscape:export-xdpi="90"
   inkscape:export-ydpi="90">
  <defs
     id="defs4">
    <linearGradient
       id="linearGradient5462"
       osb:paint="gradient">
      <stop
         style="stop-color:#007932;stop-opacity:1;"
         offset="0"
         id="stop5464" />
      <stop
         style="stop-color:#007932;stop-opacity:0;"
         offset="1"
         id="stop5466" />
    </linearGradient>
    <inkscape:path-effect
       effect="spiro"
       id="path-effect3177"
       is_visible="true" />
    <inkscape:path-effect
       effect="spiro"
       id="path-effect3173"
       is_visible="true" />
    <inkscape:path-effect
       effect="spiro"
       id="path-effect3169"
       is_visible="true" />
    <inkscape:path-effect
       effect="spiro"
       id="path-effect3165"
       is_visible="true" />
    <inkscape:path-effect
       effect="spiro"
       id="path-effect3157"
       is_visible="true" />
    <linearGradient
       id="linearGradient5200"
       osb:paint="solid">
      <stop
         style="stop-color:#055ccd;stop-opacity:1;"
         offset="0"
         id="stop5202" />
    </linearGradient>
  </defs>
  <sodipodi:namedview
     id="base"
     pagecolor="#ffffff"
     bordercolor="#666666"
     borderopacity="1.0"
     inkscape:pageopacity="0.0"
     inkscape:pageshadow="2"
     inkscape:zoom="1.8809881"
     inkscape:cx="501.17085"
     inkscape:cy="160.46289"
     inkscape:document-units="px"
     inkscape:current-layer="layer2"
     showgrid="false"
     inkscape:window-width="1506"
     inkscape:window-height="739"
     inkscape:window-x="118"
     inkscape:window-y="40"
     inkscape:window-maximized="0"
     showborder="true"
     borderlayer="true"
     fit-margin-top="0"
     fit-margin-left="0"
     fit-margin-right="0"
     fit-margin-bottom="0" />
  <metadata
     id="metadata7">
    <rdf:RDF>
      <cc:Work
         rdf:about="">
        <dc:format>image/svg+xml</dc:format>
        <dc:type
           rdf:resource="http://purl.org/dc/dcmitype/StillImage" />
        <dc:title></dc:title>
      </cc:Work>
    </rdf:RDF>
  </metadata>
  <g
     inkscape:label="Layer 1"
     inkscape:groupmode="layer"
     id="layer1"
     transform="translate(-16.155341,-736.7807)"
     style="display:none" />
  <g
     inkscape:groupmode="layer"
     id="layer2"
     inkscape:label="LogoBG"
     transform="translate(-16.155341,-736.7807)"
     style="display:inline">
    <text
       xml:space="preserve"
       style="font-size:40px;font-style:normal;font-variant:normal;font-weight:normal;font-stretch:normal;line-height:125%;letter-spacing:0px;word-spacing:0px;fill:#000000;fill-opacity:1;stroke:none;font-family:Kredit;-inkscape-font-specification:Kredit"
       x="337.10443"
       y="316.71503"
       id="text5304"
       sodipodi:linespacing="125%"
       transform="translate(0,284.36218)"><tspan
         sodipodi:role="line"
         id="tspan5306"
         x="337.10443"
         y="316.71503" /></text>
    <text
       xml:space="preserve"
       style="font-size:40px;font-style:normal;font-variant:normal;font-weight:normal;font-stretch:normal;line-height:125%;letter-spacing:0px;word-spacing:0px;fill:#000000;fill-opacity:1;stroke:none;font-family:Liberation Sans Narrow;-inkscape-font-specification:Liberation Sans Narrow"
       x="437.69205"
       y="550.51324"
       id="text5316"
       sodipodi:linespacing="125%"
       transform="translate(0,284.36218)"><tspan
         sodipodi:role="line"
         id="tspan5318"
         x="437.69205"
         y="550.51324" /></text>
    <text
       xml:space="preserve"
       style="font-size:40px;font-style:normal;font-variant:normal;font-weight:normal;font-stretch:normal;line-height:125%;letter-spacing:0px;word-spacing:0px;fill:#000000;fill-opacity:1;stroke:none;font-family:Liberation Mono;-inkscape-font-specification:Liberation Mono"
       x="362.93097"
       y="589.93274"
       id="text5320"
       sodipodi:linespacing="125%"
       transform="translate(0,284.36218)"><tspan
         sodipodi:role="line"
         id="tspan5322"
         x="362.93097"
         y="589.93274" /></text>
    <text
       xml:space="preserve"
       style="font-size:144px;font-style:normal;font-variant:normal;font-weight:normal;font-stretch:normal;line-height:125%;letter-spacing:0px;word-spacing:0px;fill:#000000;fill-opacity:1;stroke:none;font-family:OpenSymbol;-inkscape-font-specification:OpenSymbol"
       x="68.094917"
       y="158.19408"
       id="text3885"
       sodipodi:linespacing="125%"
       transform="translate(16.155341,736.7807)"><tspan
         sodipodi:role="line"
         id="tspan3887"
         x="68.094917"
         y="158.19408" /></text>
    <text
       xml:space="preserve"
       style="font-size:144px;font-style:normal;font-variant:normal;font-weight:600;font-stretch:normal;line-height:125%;letter-spacing:0px;word-spacing:0px;fill:#000000;fill-opacity:1;stroke:none;font-family:Bookman Old Style;-inkscape-font-specification:Bookman Old Style Semi-Bold"
       x="70.902962"
       y="123.09361"
       id="text3889"
       sodipodi:linespacing="125%"
       transform="translate(16.155341,736.7807)"><tspan
         sodipodi:role="line"
         id="tspan3891"
         x="70.902962"
         y="123.09361" /></text>
    <text
       xml:space="preserve"
       style="font-size:144px;font-style:normal;font-variant:normal;font-weight:300;font-stretch:normal;line-height:125%;letter-spacing:0px;word-spacing:0px;fill:#000000;fill-opacity:1;stroke:none;font-family:Bookman Old Style;-inkscape-font-specification:Bookman Old Style Light"
       x="93.367264"
       y="94.311218"
       id="text3893"
       sodipodi:linespacing="125%"
       transform="translate(16.155341,736.7807)"><tspan
         sodipodi:role="line"
         id="tspan3895"
         x="93.367264"
         y="94.311218" /></text>
    <text
       xml:space="preserve"
       style="font-size:144px;font-style:normal;font-variant:normal;font-weight:normal;font-stretch:normal;line-height:125%;letter-spacing:0px;word-spacing:0px;fill:#000000;fill-opacity:1;stroke:none;font-family:Britannic Bold;-inkscape-font-specification:Britannic Bold"
       x="146.71999"
       y="113.26547"
       id="text3897"
       sodipodi:linespacing="125%"
       transform="translate(16.155341,736.7807)"><tspan
         sodipodi:role="line"
         id="tspan3899"
         x="146.71999"
         y="113.26547" /></text>
    <text
       xml:space="preserve"
       style="font-size:144px;font-style:normal;font-variant:normal;font-weight:normal;font-stretch:normal;line-height:125%;letter-spacing:0px;word-spacing:0px;fill:#000000;fill-opacity:1;stroke:none;font-family:DFKai-SB;-inkscape-font-specification:DFKai-SB"
       x="108.10946"
       y="143.45187"
       id="text3901"
       sodipodi:linespacing="125%"
       transform="translate(16.155341,736.7807)"><tspan
         sodipodi:role="line"
         id="tspan3903"
         x="108.10946"
         y="143.45187" /></text>
    <text
       xml:space="preserve"
       style="font-size:144px;font-style:normal;font-variant:normal;font-weight:normal;font-stretch:normal;line-height:125%;letter-spacing:0px;word-spacing:0px;fill:#000000;fill-opacity:1;stroke:none;font-family:OpenSymbol;-inkscape-font-specification:OpenSymbol"
       x="-121.44764"
       y="125.19964"
       id="text3905"
       sodipodi:linespacing="125%"
       transform="translate(16.155341,736.7807)"><tspan
         sodipodi:role="line"
         id="tspan3907"
         x="-121.44764"
         y="125.19964" /></text>
    <text
       xml:space="preserve"
       style="font-size:144px;font-style:normal;font-variant:normal;font-weight:normal;font-stretch:normal;line-height:125%;letter-spacing:0px;word-spacing:0px;fill:#000000;fill-opacity:1;stroke:none;font-family:Planet Benson 2;-inkscape-font-specification:Planet Benson 2"
       x="61.776836"
       y="109.75543"
       id="text3909"
       sodipodi:linespacing="125%"
       transform="translate(16.155341,736.7807)"><tspan
         sodipodi:role="line"
         id="tspan3911"
         x="61.776836"
         y="109.75543" /></text>
    <text
       xml:space="preserve"
       style="font-size:144px;font-style:normal;font-variant:normal;font-weight:normal;font-stretch:normal;line-height:125%;letter-spacing:0px;word-spacing:0px;fill:#000000;fill-opacity:1;stroke:none;font-family:QuickType II Pi;-inkscape-font-specification:QuickType II Pi"
       x="-125.6597"
       y="260.68747"
       id="text3913"
       sodipodi:linespacing="125%"
       transform="translate(16.155341,736.7807)"><tspan
         sodipodi:role="line"
         id="tspan3915"
         x="-125.6597"
         y="260.68747" /></text>
    <text
       xml:space="preserve"
       style="font-size:144px;font-style:normal;font-variant:normal;font-weight:normal;font-stretch:normal;line-height:125%;letter-spacing:0px;word-spacing:0px;fill:#000000;fill-opacity:1;stroke:none;font-family:Traditional Arabic;-inkscape-font-specification:Traditional Arabic"
       x="-187.43652"
       y="160.30011"
       id="text3917"
       sodipodi:linespacing="125%"
       transform="translate(16.155341,736.7807)"><tspan
         sodipodi:role="line"
         id="tspan3919"
         x="-187.43652"
         y="160.30011" /></text>
    <text
       xml:space="preserve"
       style="font-size:144px;font-style:normal;font-variant:normal;font-weight:normal;font-stretch:normal;line-height:125%;letter-spacing:0px;word-spacing:0px;fill:#000000;fill-opacity:1;stroke:none;font-family:Planet Benson 2;-inkscape-font-specification:Planet Benson 2"
       x="-162.8662"
       y="465.67422"
       id="text3921"
       sodipodi:linespacing="125%"
       transform="translate(16.155341,736.7807)"><tspan
         sodipodi:role="line"
         id="tspan3923"
         x="-162.8662"
         y="465.67422" /></text>
    <text
       xml:space="preserve"
       style="font-size:4px;font-style:normal;font-variant:normal;font-weight:normal;font-stretch:normal;line-height:125%;letter-spacing:0px;word-spacing:0px;fill:#000000;fill-opacity:1;stroke:none;font-family:Times New Roman;-inkscape-font-specification:Times New Roman"
       x="237.27921"
       y="47.276581"
       id="text3931"
       sodipodi:linespacing="125%"
       transform="translate(16.155341,736.7807)"><tspan
         sodipodi:role="line"
         id="tspan3933"
         x="237.27921"
         y="47.276581" /></text>
    <text
       xml:space="preserve"
       style="font-size:20px;font-style:normal;font-variant:normal;font-weight:normal;font-stretch:normal;line-height:125%;letter-spacing:0px;word-spacing:0px;fill:#000000;fill-opacity:1;stroke:none;font-family:Times New Roman;-inkscape-font-specification:Times New Roman"
       x="191.44487"
       y="68.613396"
       id="text3935"
       sodipodi:linespacing="125%"
       transform="translate(16.155341,736.7807)"><tspan
         sodipodi:role="line"
         id="tspan3937"
         x="191.44487"
         y="68.613396" /></text>
    <text
       xml:space="preserve"
       style="font-size:18px;font-style:normal;font-variant:normal;font-weight:normal;font-stretch:normal;line-height:125%;letter-spacing:0px;word-spacing:0px;fill:#000000;fill-opacity:1;stroke:none;font-family:Times New Roman;-inkscape-font-specification:Times New Roman"
       x="225.8774"
       y="63.104191"
       id="text3939"
       sodipodi:linespacing="125%"
       transform="translate(16.155341,736.7807)"><tspan
         sodipodi:role="line"
         id="tspan3941"
         x="225.8774"
         y="63.104191" /></text>
    <text
       xml:space="preserve"
       style="font-size:42.5193367px;font-style:normal;font-variant:normal;font-weight:normal;font-stretch:normal;line-height:125%;letter-spacing:0px;word-spacing:0px;fill:#007932;fill-opacity:1;stroke:none;font-family:Times New Roman;-inkscape-font-specification:Times New Roman"
       x="229.76563"
       y="777.36188"
       id="text3943"
       sodipodi:linespacing="125%"
       transform="scale(0.94567422,1.0574466)"><tspan
         sodipodi:role="line"
         id="tspan3945"
         x="229.76563"
         y="777.36188">14</tspan></text>
    <path
       style="fill:#007932;fill-opacity:1;stroke:#ffffff;stroke-width:0.20082049;stroke-opacity:1"
       d="m 138.7906,871.67113 c 14.30356,-6.65217 24.4311,-13.50327 30.47669,-20.61684 2.65924,-3.12908 4.96238,-7.43021 5.88862,-10.99728 0.54619,-2.10316 0.49628,-7.24145 -0.0922,-9.44667 -0.91265,-3.42304 -3.31065,-7.89055 -6.01363,-11.20355 -5.85189,-7.1724 -16.08749,-14.63096 -28.97755,-21.11563 -2.02475,-1.01859 -3.91407,-1.94707 -4.19863,-2.06329 -0.28457,-0.11622 -0.47034,-0.24833 -0.41272,-0.29356 0.26283,-0.20666 12.14509,3.65309 19.42245,6.30901 23.59997,8.61302 39.09197,17.91106 44.66644,26.80816 1.65338,2.63886 2.08969,3.97252 2.25279,6.88672 0.12648,2.25849 0.089,2.62354 -0.42534,4.1589 -1.18424,3.53398 -3.46374,6.48715 -7.58816,9.83058 -8.6841,7.03975 -22.99168,13.35952 -44.64367,19.71945 -5.02395,1.47575 -13.33848,3.71335 -13.57319,3.65285 -0.10098,-0.026 1.34715,-0.75894 3.2176,-1.62885 l 0,0 z"
       id="path4097"
       inkscape:connector-curvature="0" />
    <path
       style="fill:#007932;fill-opacity:1;stroke:#ffffff;stroke-width:0.20082049;stroke-opacity:1;display:inline"
       d="m 138.06453,941.4973 c 14.30355,-6.65224 24.43109,-13.50331 30.47669,-20.61688 2.65924,-3.12907 4.96237,-7.43019 5.88861,-10.99727 0.5462,-2.10317 0.49628,-7.24146 -0.0922,-9.44668 -0.91264,-3.42304 -3.31064,-7.89055 -6.01361,-11.20353 -5.8519,-7.17242 -16.08751,-14.63098 -28.97756,-21.11564 -2.02475,-1.0186 -3.91407,-1.94708 -4.19863,-2.0633 -0.28457,-0.11623 -0.47034,-0.24833 -0.41272,-0.29355 0.26283,-0.20667 12.14509,3.65309 19.42245,6.30901 23.59997,8.61301 39.09198,17.91106 44.66644,26.80816 1.65339,2.63885 2.08968,3.97251 2.2528,6.88671 0.12647,2.25848 0.089,2.62355 -0.42534,4.1589 -1.18424,3.53397 -3.46376,6.48714 -7.58817,9.83059 -6.011,4.87279 -14.71632,9.40063 -26.68668,13.8356 -5.32324,1.97225 -11.29217,3.92612 -17.95699,5.8838 -5.02395,1.4758 -13.33848,3.71332 -13.57319,3.65294 -0.10098,-0.0257 1.34716,-0.75898 3.2176,-1.62886 l 0,0 z"
       id="path4097-3"
       inkscape:connector-curvature="0"
       sodipodi:nodetypes="csccssccssccssccccc" />
    <path
       style="fill:#007932;fill-opacity:1;stroke:#007932;stroke-width:1.0995245px;stroke-linecap:butt;stroke-linejoin:miter;stroke-opacity:1"
       d="m 122.75043,940.38713 14.20721,-146.13511 -2.55285,148.68394 z"
       id="path3141"
       inkscape:connector-curvature="0"
       inkscape:export-xdpi="90"
       inkscape:export-ydpi="90"
       inkscape:export-filename="X:\work\webDev\bostonmicrotek\logowar\images\logo\BuTek_logo3_942x280.png" />
    <path
       style="fill:#007932;fill-opacity:1;stroke:#ffffff;stroke-width:0.13402513;stroke-opacity:1;display:inline"
       d="m 218.24426,871.85489 c -1.44927,13.71757 -1.57627,24.33142 -0.38217,31.94014 0.52528,3.34681 1.64838,6.91518 2.87166,9.12363 0.72123,1.30217 2.89393,3.42691 3.99461,3.90596 1.70827,0.74427 4.29578,0.79442 6.48892,0.12584 4.74801,-1.44753 10.91655,-6.12058 17.46352,-13.22961 1.02839,-1.11669 1.97876,-2.16793 2.11197,-2.3362 0.13323,-0.16829 0.2438,-0.25447 0.2457,-0.19145 0.009,0.2876 -5.13681,7.73231 -8.41092,12.16896 -10.61773,14.38773 -19.11804,22.29857 -24.50807,22.80839 -1.5987,0.15125 -2.28818,-0.0771 -3.56044,-1.17927 -0.98598,-0.85414 -1.12817,-1.03641 -1.62041,-2.0752 -1.13282,-2.39153 -1.69685,-5.3745 -1.87752,-9.92986 -0.38042,-9.59152 1.20965,-23.17224 4.96147,-42.37563 0.87054,-4.45581 2.39721,-11.7439 2.49223,-11.89762 0.0409,-0.0661 -0.0809,1.34771 -0.2704,3.14155 l 0,0 z"
       id="path4097-3-2"
       inkscape:connector-curvature="0" />
    <path
       style="fill:#007932;fill-opacity:1;stroke:#ffffff;stroke-width:0.08951963;stroke-opacity:1;display:inline"
       d="m 249.55171,873.24774 c -0.64614,13.72667 -0.70277,24.34755 -0.17039,31.96133 0.23419,3.34903 0.73491,6.91977 1.2803,9.12969 0.32154,1.30303 1.29021,3.42921 1.78094,3.90855 0.7616,0.74476 1.91522,0.79494 2.893,0.12594 2.11684,-1.44853 4.867,-6.12466 7.78588,-13.23841 0.45849,-1.11743 0.8822,-2.16936 0.94159,-2.33775 0.0594,-0.1684 0.1087,-0.25465 0.10955,-0.19158 0.004,0.28779 -2.29019,7.73744 -3.7499,12.17704 -4.73377,14.39731 -8.52353,22.31335 -10.92661,22.8235 -0.71275,0.15137 -1.02016,-0.0772 -1.58737,-1.18003 -0.43959,-0.8547 -0.50298,-1.03712 -0.72243,-2.07658 -0.50506,-2.39311 -0.75653,-5.37806 -0.83708,-9.93643 -0.1696,-9.5979 0.5393,-23.18764 2.21201,-42.40376 0.38812,-4.45877 1.06877,-11.7517 1.11112,-11.90552 0.0182,-0.0661 -0.0361,1.3486 -0.12055,3.14363 l 0,0 z"
       id="path4097-3-2-2"
       inkscape:connector-curvature="0" />
    <path
       style="fill:#007932;fill-opacity:1;stroke:#ffffff;stroke-width:0.25532115;stroke-opacity:1;display:inline"
       d="m 398.81049,826.01073 c 19.9989,-7.69055 34.15898,-15.61112 42.6118,-23.83512 3.71808,-3.61754 6.93828,-8.59005 8.23333,-12.71397 0.76366,-2.43147 0.69388,-8.37183 -0.12894,-10.9213 -1.27602,-3.95738 -4.62885,-9.12224 -8.40809,-12.95243 -8.18199,-8.292 -22.49317,-16.91476 -40.51575,-24.4118 -2.83096,-1.17755 -5.47256,-2.25093 -5.87043,-2.38527 -0.39786,-0.13444 -0.65762,-0.28717 -0.57705,-0.33943 0.36749,-0.23886 16.98099,4.22339 27.15602,7.29383 32.99691,9.9575 54.65749,20.70694 62.45157,30.9929 2.31173,3.0508 2.92176,4.59264 3.1498,7.96179 0.17684,2.61099 0.1244,3.03309 -0.59469,4.80806 -1.65578,4.08566 -4.84294,7.49982 -10.6096,11.36515 -12.1419,8.13863 -32.14642,15.44492 -62.41974,22.79765 -7.02436,1.70611 -18.64954,4.293 -18.97771,4.22305 -0.1412,-0.0303 1.88355,-0.87742 4.49877,-1.88311 l 0,0 z"
       id="path4097-5"
       inkscape:connector-curvature="0" />
    <path
       style="fill:#007932;fill-opacity:1;stroke:#ffffff;stroke-width:0.25532115;stroke-opacity:1;display:inline"
       d="m 397.7953,906.73676 c 19.99889,-7.69064 34.15898,-15.61112 42.6118,-23.83512 3.7181,-3.61754 6.93826,-8.59014 8.23331,-12.71398 0.76369,-2.43147 0.6939,-8.37183 -0.12892,-10.9213 -1.27602,-3.95738 -4.62885,-9.12222 -8.4081,-12.95241 -8.18198,-8.29202 -22.49316,-16.91485 -40.51574,-24.4118 -2.83096,-1.17765 -5.47256,-2.25102 -5.87042,-2.38537 -0.39788,-0.13436 -0.65762,-0.28708 -0.57705,-0.33933 0.36749,-0.23896 16.98097,4.22329 27.15601,7.29382 32.99692,9.9575 54.65749,20.70694 62.45157,30.9929 2.31173,3.05079 2.92175,4.59263 3.14981,7.9617 0.17684,2.61108 0.12439,3.0331 -0.5947,4.80815 -1.65577,4.08558 -4.84293,7.49974 -10.60959,11.36507 -12.14192,8.1387 -32.14643,15.44499 -62.41974,22.79765 -7.02437,1.7061 -18.64954,4.293 -18.97772,4.22312 -0.14119,-0.0303 1.88356,-0.87741 4.49877,-1.8831 l 0,0 z"
       id="path4097-3-1"
       inkscape:connector-curvature="0"
       inkscape:export-filename="X:\work\webDev\bostonmicrotek\logowar\images\logo\BuTek_logo8_942x280.png"
       inkscape:export-xdpi="90"
       inkscape:export-ydpi="90" />
    <path
       style="fill:#007932;fill-opacity:1;stroke:#ffffff;stroke-width:1.3979243px;stroke-linecap:butt;stroke-linejoin:miter;stroke-opacity:1;display:inline"
       d="m 382.66085,905.45325 19.8642,-168.94672 -3.56934,171.89352 z"
       id="path3141-2"
       inkscape:connector-curvature="0"
       inkscape:export-xdpi="90"
       inkscape:export-ydpi="90"
       inkscape:export-filename="X:\work\webDev\bostonmicrotek\logowar\images\logo\BuTek_logo3_942x280.png" />
    <path
       style="fill:#007932;fill-opacity:1;stroke:#007932;stroke-width:9.01536274;stroke-linecap:round;stroke-linejoin:bevel;stroke-miterlimit:4;stroke-opacity:1;stroke-dasharray:none"
       d="m 183.84222,752.84286 c -64.75723,0 -117.246767,53.05536 -117.246767,118.50822 0,65.45288 52.489537,118.50822 117.246767,118.50822 64.75722,0 117.27476,-53.05534 117.27476,-118.50822 0,-65.45286 -52.51754,-118.50822 -117.27476,-118.50822 z m 0,1.81448 c 63.75904,0 115.45503,52.15129 115.45503,116.46694 0,64.31565 -51.69599,116.43855 -115.45503,116.43855 -63.75904,0 -115.427034,-52.1229 -115.427034,-116.43855 0,-64.31565 51.667994,-116.46694 115.427034,-116.46694 z"
       id="path5649"
       inkscape:connector-curvature="0" />
    <path
       sodipodi:type="arc"
       style="fill:#007932;fill-opacity:1;stroke:#007932;stroke-width:10;stroke-linecap:round;stroke-linejoin:bevel;stroke-miterlimit:4;stroke-opacity:1;stroke-dasharray:none"
       id="path5654"
       sodipodi:cx="50.68853"
       sodipodi:cy="135.82968"
       sodipodi:rx="12.356906"
       sodipodi:ry="12.356906"
       d="m 63.045436,135.82968 a 12.356906,12.356906 0 1 1 -24.713812,0 12.356906,12.356906 0 1 1 24.713812,0 z"
       transform="translate(16.155341,736.7807)" />
    <path
       transform="translate(137.45476,620.52492)"
       sodipodi:type="arc"
       style="fill:#007932;fill-opacity:1;stroke:#007932;stroke-width:10;stroke-linecap:round;stroke-linejoin:bevel;stroke-miterlimit:4;stroke-opacity:1;stroke-dasharray:none;display:inline"
       id="path5654-8"
       sodipodi:cx="50.68853"
       sodipodi:cy="135.82968"
       sodipodi:rx="12.356906"
       sodipodi:ry="12.356906"
       d="m 63.045436,135.82968 a 12.356906,12.356906 0 1 1 -24.713812,0 12.356906,12.356906 0 1 1 24.713812,0 z" />
    <path
       transform="translate(247.91036,735.51978)"
       sodipodi:type="arc"
       style="fill:#007932;fill-opacity:1;stroke:#007932;stroke-width:10;stroke-linecap:round;stroke-linejoin:bevel;stroke-miterlimit:4;stroke-opacity:1;stroke-dasharray:none;display:inline"
       id="path5654-8-8"
       sodipodi:cx="50.68853"
       sodipodi:cy="135.82968"
       sodipodi:rx="12.356906"
       sodipodi:ry="12.356906"
       d="m 63.045436,135.82968 a 12.356906,12.356906 0 1 1 -24.713812,0 12.356906,12.356906 0 1 1 24.713812,0 z" />
    <path
       transform="translate(131.90677,850.01031)"
       sodipodi:type="arc"
       style="fill:#007932;fill-opacity:1;stroke:#007932;stroke-width:10;stroke-linecap:round;stroke-linejoin:bevel;stroke-miterlimit:4;stroke-opacity:1;stroke-dasharray:none;display:inline"
       id="path5654-8-3"
       sodipodi:cx="50.68853"
       sodipodi:cy="135.82968"
       sodipodi:rx="12.356906"
       sodipodi:ry="12.356906"
       d="m 63.045436,135.82968 a 12.356906,12.356906 0 1 1 -24.713812,0 12.356906,12.356906 0 1 1 24.713812,0 z" />
  </g>
  <g
     inkscape:groupmode="layer"
     id="layer3"
     inkscape:label="Logo"
     transform="translate(-16.155341,-736.7807)">
    <text
       xml:space="preserve"
       style="font-size:40px;font-style:normal;font-variant:normal;font-weight:normal;font-stretch:normal;line-height:125%;letter-spacing:0px;word-spacing:0px;fill:#000000;fill-opacity:1;stroke:none;font-family:OpenSymbol;-inkscape-font-specification:OpenSymbol"
       x="124.37522"
       y="390.79645"
       id="text5219"
       sodipodi:linespacing="125%"
       transform="translate(0,284.36218)"><tspan
         sodipodi:role="line"
         id="tspan5221"
         x="124.37522"
         y="390.79645" /></text>
    <text
       xml:space="preserve"
       style="font-size:40px;font-style:normal;font-variant:normal;font-weight:normal;font-stretch:normal;line-height:125%;letter-spacing:0px;word-spacing:0px;fill:#000000;fill-opacity:1;stroke:none;font-family:OpenSymbol;-inkscape-font-specification:OpenSymbol"
       x="126.41416"
       y="373.8053"
       id="text5223"
       sodipodi:linespacing="125%"
       transform="translate(0,284.36218)"><tspan
         sodipodi:role="line"
         id="tspan5225"
         x="126.41416"
         y="373.8053" /></text>
    <text
       xml:space="preserve"
       style="font-size:40px;font-style:normal;font-variant:normal;font-weight:normal;font-stretch:normal;line-height:125%;letter-spacing:0px;word-spacing:0px;fill:#000000;fill-opacity:1;stroke:none;font-family:OpenSymbol;-inkscape-font-specification:OpenSymbol"
       x="112.14159"
       y="378.56284"
       id="text5243"
       sodipodi:linespacing="125%"
       transform="translate(0,284.36218)"><tspan
         sodipodi:role="line"
         id="tspan5245"
         x="112.14159"
         y="378.56284" /></text>
    <text
       xml:space="preserve"
       style="font-size:144px;font-style:normal;font-variant:normal;font-weight:normal;font-stretch:normal;line-height:125%;letter-spacing:0px;word-spacing:0px;fill:#ffffff;fill-opacity:1;stroke:none;font-family:Eras Medium ITC;-inkscape-font-specification:Eras Medium ITC"
       x="71.126183"
       y="179.28162"
       id="text5344"
       sodipodi:linespacing="125%"
       transform="translate(0,742.36218)"><tspan
         sodipodi:role="line"
         id="tspan5346"
         x="71.126183"
         y="179.28162">χ</tspan></text>
    <text
       xml:space="preserve"
       style="font-size:370px;font-style:normal;font-variant:normal;font-weight:normal;font-stretch:normal;line-height:125%;letter-spacing:0px;word-spacing:0px;fill:#ffffff;fill-opacity:1;stroke:none;font-family:OpenSymbol;-inkscape-font-specification:OpenSymbol"
       x="82.669243"
       y="934.4115"
       id="text5352"
       sodipodi:linespacing="125%"><tspan
         sodipodi:role="line"
         id="tspan5354"
         x="82.669243"
         y="934.4115" /></text>
  </g>
  <g
     inkscape:groupmode="layer"
     id="layer4"
     inkscape:label="CompanyName"
     transform="translate(-16.155341,-452.41852)">
    <text
       xml:space="preserve"
       style="font-size:40px;font-style:normal;font-variant:normal;font-weight:normal;font-stretch:normal;line-height:125%;letter-spacing:0px;word-spacing:0px;fill:#000000;fill-opacity:1;stroke:none;font-family:Engravers MT;-inkscape-font-specification:Engravers MT"
       x="422.73981"
       y="577.6991"
       id="text5276"
       sodipodi:linespacing="125%"><tspan
         sodipodi:role="line"
         id="tspan5278"
         x="422.73981"
         y="577.6991" /></text>
    <text
       xml:space="preserve"
       style="font-size:72px;font-style:normal;font-variant:normal;font-weight:normal;font-stretch:normal;line-height:125%;letter-spacing:0px;word-spacing:0px;fill:#323d4e;fill-opacity:1;stroke:none;font-family:Rockwell;-inkscape-font-specification:Rockwell"
       x="359.86133"
       y="742.84479"
       id="text5340"
       sodipodi:linespacing="125%"><tspan
         sodipodi:role="line"
         id="tspan5342"
         x="359.86133"
         y="742.84479" /></text>
    <text
       xml:space="preserve"
       style="font-size:203.09889221px;font-style:normal;font-variant:normal;font-weight:normal;font-stretch:normal;line-height:125%;letter-spacing:0px;word-spacing:0px;fill:#007932;fill-opacity:1;stroke:none;font-family:Arabic Typesetting;-inkscape-font-specification:Arabic Typesetting"
       x="502.50693"
       y="605.26929"
       id="text3947"
       sodipodi:linespacing="125%"
       transform="scale(0.99679024,1.0032201)"
       inkscape:export-filename="X:\work\webDev\bostonmicrotek\logowar\images\logo\BuTek_logo6_942x280.png"
       inkscape:export-xdpi="90"
       inkscape:export-ydpi="90"><tspan
         sodipodi:role="line"
         id="tspan3949"
         x="502.50693"
         y="605.26929">OSTON</tspan></text>
    <text
       xml:space="preserve"
       style="font-size:144px;font-style:normal;font-variant:normal;font-weight:normal;font-stretch:normal;line-height:125%;letter-spacing:0px;word-spacing:0px;fill:#000000;fill-opacity:1;stroke:none;font-family:Bodoni MT;-inkscape-font-specification:Bodoni MT"
       x="364.98483"
       y="-77.380531"
       id="text3951"
       sodipodi:linespacing="125%"
       transform="translate(16.155341,452.41852)"><tspan
         sodipodi:role="line"
         id="tspan3953"
         x="364.98483"
         y="-77.380531" /></text>
    <text
       xml:space="preserve"
       style="font-size:90.6681366px;font-style:normal;font-variant:normal;font-weight:normal;font-stretch:normal;line-height:125%;letter-spacing:0px;word-spacing:0px;fill:#002e00;fill-opacity:1;stroke:none;font-family:Bodoni MT;-inkscape-font-specification:Bodoni MT"
       x="393.57819"
       y="669.86401"
       id="text3959"
       sodipodi:linespacing="125%"
       transform="scale(0.94656688,1.0564494)"><tspan
         sodipodi:role="line"
         id="tspan3961"
         x="393.57819"
         y="669.86401">Microtechnology</tspan></text>
  </g>
</svg>
