<?xml version="1.0" encoding="UTF-8" standalone="no"?>
<!-- Created with Inkscape (http://www.inkscape.org/) -->

<svg
   xmlns:osb="http://www.openswatchbook.org/uri/2009/osb"
   xmlns:dc="http://purl.org/dc/elements/1.1/"
   xmlns:cc="http://creativecommons.org/ns#"
   xmlns:rdf="http://www.w3.org/1999/02/22-rdf-syntax-ns#"
   xmlns:svg="http://www.w3.org/2000/svg"
   xmlns="http://www.w3.org/2000/svg"
   xmlns:sodipodi="http://sodipodi.sourceforge.net/DTD/sodipodi-0.dtd"
   xmlns:inkscape="http://www.inkscape.org/namespaces/inkscape"
   width="1000"
   height="300"
   id="svg2"
   version="1.1"
   inkscape:version="0.48.4 r9939"
   sodipodi:docname="BuTekLogo6.svg"
   inkscape:export-filename="X:\work\webDev\bostonmicrotek\logowar\images\logo\BuTek_logo6_942x280.png"
   inkscape:export-xdpi="90"
   inkscape:export-ydpi="90">
  <defs
     id="defs4">
    <linearGradient
       inkscape:collect="always"
       id="linearGradient5462"
       osb:paint="gradient">
      <stop
         style="stop-color:#007932;stop-opacity:1;"
         offset="0"
         id="stop5464" />
      <stop
         style="stop-color:#007932;stop-opacity:0;"
         offset="1"
         id="stop5466" />
    </linearGradient>
    <inkscape:path-effect
       effect="spiro"
       id="path-effect3177"
       is_visible="true" />
    <inkscape:path-effect
       effect="spiro"
       id="path-effect3173"
       is_visible="true" />
    <inkscape:path-effect
       effect="spiro"
       id="path-effect3169"
       is_visible="true" />
    <inkscape:path-effect
       effect="spiro"
       id="path-effect3165"
       is_visible="true" />
    <inkscape:path-effect
       effect="spiro"
       id="path-effect3157"
       is_visible="true" />
    <linearGradient
       id="linearGradient5200"
       osb:paint="solid">
      <stop
         style="stop-color:#055ccd;stop-opacity:1;"
         offset="0"
         id="stop5202" />
    </linearGradient>
  </defs>
  <sodipodi:namedview
     id="base"
     pagecolor="#ffffff"
     bordercolor="#666666"
     borderopacity="1.0"
     inkscape:pageopacity="0.0"
     inkscape:pageshadow="2"
     inkscape:zoom="1.5308181"
     inkscape:cx="496.06034"
     inkscape:cy="150.48997"
     inkscape:document-units="px"
     inkscape:current-layer="layer2"
     showgrid="false"
     inkscape:window-width="1920"
     inkscape:window-height="1058"
     inkscape:window-x="-8"
     inkscape:window-y="-8"
     inkscape:window-maximized="1"
     showborder="true"
     borderlayer="true"
     fit-margin-top="0"
     fit-margin-left="0"
     fit-margin-right="0"
     fit-margin-bottom="0" />
  <metadata
     id="metadata7">
    <rdf:RDF>
      <cc:Work
         rdf:about="">
        <dc:format>image/svg+xml</dc:format>
        <dc:type
           rdf:resource="http://purl.org/dc/dcmitype/StillImage" />
        <dc:title></dc:title>
      </cc:Work>
    </rdf:RDF>
  </metadata>
  <g
     inkscape:label="Layer 1"
     inkscape:groupmode="layer"
     id="layer1"
     transform="translate(-16.155341,-736.7807)"
     style="display:none" />
  <g
     inkscape:groupmode="layer"
     id="layer2"
     inkscape:label="LogoBG"
     transform="translate(-16.155341,-736.7807)"
     style="display:inline">
    <text
       xml:space="preserve"
       style="font-size:40px;font-style:normal;font-variant:normal;font-weight:normal;font-stretch:normal;line-height:125%;letter-spacing:0px;word-spacing:0px;fill:#000000;fill-opacity:1;stroke:none;font-family:Kredit;-inkscape-font-specification:Kredit"
       x="337.10443"
       y="316.71503"
       id="text5304"
       sodipodi:linespacing="125%"
       transform="translate(0,284.36218)"><tspan
         sodipodi:role="line"
         id="tspan5306"
         x="337.10443"
         y="316.71503" /></text>
    <text
       xml:space="preserve"
       style="font-size:40px;font-style:normal;font-variant:normal;font-weight:normal;font-stretch:normal;line-height:125%;letter-spacing:0px;word-spacing:0px;fill:#000000;fill-opacity:1;stroke:none;font-family:Liberation Sans Narrow;-inkscape-font-specification:Liberation Sans Narrow"
       x="437.69205"
       y="550.51324"
       id="text5316"
       sodipodi:linespacing="125%"
       transform="translate(0,284.36218)"><tspan
         sodipodi:role="line"
         id="tspan5318"
         x="437.69205"
         y="550.51324" /></text>
    <text
       xml:space="preserve"
       style="font-size:40px;font-style:normal;font-variant:normal;font-weight:normal;font-stretch:normal;line-height:125%;letter-spacing:0px;word-spacing:0px;fill:#000000;fill-opacity:1;stroke:none;font-family:Liberation Mono;-inkscape-font-specification:Liberation Mono"
       x="362.93097"
       y="589.93274"
       id="text5320"
       sodipodi:linespacing="125%"
       transform="translate(0,284.36218)"><tspan
         sodipodi:role="line"
         id="tspan5322"
         x="362.93097"
         y="589.93274" /></text>
    <text
       xml:space="preserve"
       style="font-size:144px;font-style:normal;font-variant:normal;font-weight:normal;font-stretch:normal;line-height:125%;letter-spacing:0px;word-spacing:0px;fill:#000000;fill-opacity:1;stroke:none;font-family:OpenSymbol;-inkscape-font-specification:OpenSymbol"
       x="68.094917"
       y="158.19408"
       id="text3885"
       sodipodi:linespacing="125%"
       transform="translate(16.155341,736.7807)"><tspan
         sodipodi:role="line"
         id="tspan3887"
         x="68.094917"
         y="158.19408" /></text>
    <text
       xml:space="preserve"
       style="font-size:144px;font-style:normal;font-variant:normal;font-weight:600;font-stretch:normal;line-height:125%;letter-spacing:0px;word-spacing:0px;fill:#000000;fill-opacity:1;stroke:none;font-family:Bookman Old Style;-inkscape-font-specification:Bookman Old Style Semi-Bold"
       x="70.902962"
       y="123.09361"
       id="text3889"
       sodipodi:linespacing="125%"
       transform="translate(16.155341,736.7807)"><tspan
         sodipodi:role="line"
         id="tspan3891"
         x="70.902962"
         y="123.09361" /></text>
    <text
       xml:space="preserve"
       style="font-size:144px;font-style:normal;font-variant:normal;font-weight:300;font-stretch:normal;line-height:125%;letter-spacing:0px;word-spacing:0px;fill:#000000;fill-opacity:1;stroke:none;font-family:Bookman Old Style;-inkscape-font-specification:Bookman Old Style Light"
       x="93.367264"
       y="94.311218"
       id="text3893"
       sodipodi:linespacing="125%"
       transform="translate(16.155341,736.7807)"><tspan
         sodipodi:role="line"
         id="tspan3895"
         x="93.367264"
         y="94.311218" /></text>
    <text
       xml:space="preserve"
       style="font-size:144px;font-style:normal;font-variant:normal;font-weight:normal;font-stretch:normal;line-height:125%;letter-spacing:0px;word-spacing:0px;fill:#000000;fill-opacity:1;stroke:none;font-family:Britannic Bold;-inkscape-font-specification:Britannic Bold"
       x="146.71999"
       y="113.26547"
       id="text3897"
       sodipodi:linespacing="125%"
       transform="translate(16.155341,736.7807)"><tspan
         sodipodi:role="line"
         id="tspan3899"
         x="146.71999"
         y="113.26547" /></text>
    <text
       xml:space="preserve"
       style="font-size:144px;font-style:normal;font-variant:normal;font-weight:normal;font-stretch:normal;line-height:125%;letter-spacing:0px;word-spacing:0px;fill:#000000;fill-opacity:1;stroke:none;font-family:DFKai-SB;-inkscape-font-specification:DFKai-SB"
       x="108.10946"
       y="143.45187"
       id="text3901"
       sodipodi:linespacing="125%"
       transform="translate(16.155341,736.7807)"><tspan
         sodipodi:role="line"
         id="tspan3903"
         x="108.10946"
         y="143.45187" /></text>
    <text
       xml:space="preserve"
       style="font-size:144px;font-style:normal;font-variant:normal;font-weight:normal;font-stretch:normal;line-height:125%;letter-spacing:0px;word-spacing:0px;fill:#000000;fill-opacity:1;stroke:none;font-family:OpenSymbol;-inkscape-font-specification:OpenSymbol"
       x="-121.44764"
       y="125.19964"
       id="text3905"
       sodipodi:linespacing="125%"
       transform="translate(16.155341,736.7807)"><tspan
         sodipodi:role="line"
         id="tspan3907"
         x="-121.44764"
         y="125.19964" /></text>
    <text
       xml:space="preserve"
       style="font-size:144px;font-style:normal;font-variant:normal;font-weight:normal;font-stretch:normal;line-height:125%;letter-spacing:0px;word-spacing:0px;fill:#000000;fill-opacity:1;stroke:none;font-family:Planet Benson 2;-inkscape-font-specification:Planet Benson 2"
       x="61.776836"
       y="109.75543"
       id="text3909"
       sodipodi:linespacing="125%"
       transform="translate(16.155341,736.7807)"><tspan
         sodipodi:role="line"
         id="tspan3911"
         x="61.776836"
         y="109.75543" /></text>
    <text
       xml:space="preserve"
       style="font-size:144px;font-style:normal;font-variant:normal;font-weight:normal;font-stretch:normal;line-height:125%;letter-spacing:0px;word-spacing:0px;fill:#000000;fill-opacity:1;stroke:none;font-family:QuickType II Pi;-inkscape-font-specification:QuickType II Pi"
       x="-125.6597"
       y="260.68747"
       id="text3913"
       sodipodi:linespacing="125%"
       transform="translate(16.155341,736.7807)"><tspan
         sodipodi:role="line"
         id="tspan3915"
         x="-125.6597"
         y="260.68747" /></text>
    <text
       xml:space="preserve"
       style="font-size:144px;font-style:normal;font-variant:normal;font-weight:normal;font-stretch:normal;line-height:125%;letter-spacing:0px;word-spacing:0px;fill:#000000;fill-opacity:1;stroke:none;font-family:Traditional Arabic;-inkscape-font-specification:Traditional Arabic"
       x="-187.43652"
       y="160.30011"
       id="text3917"
       sodipodi:linespacing="125%"
       transform="translate(16.155341,736.7807)"><tspan
         sodipodi:role="line"
         id="tspan3919"
         x="-187.43652"
         y="160.30011" /></text>
    <text
       xml:space="preserve"
       style="font-size:144px;font-style:normal;font-variant:normal;font-weight:normal;font-stretch:normal;line-height:125%;letter-spacing:0px;word-spacing:0px;fill:#000000;fill-opacity:1;stroke:none;font-family:Planet Benson 2;-inkscape-font-specification:Planet Benson 2"
       x="-162.8662"
       y="465.67422"
       id="text3921"
       sodipodi:linespacing="125%"
       transform="translate(16.155341,736.7807)"><tspan
         sodipodi:role="line"
         id="tspan3923"
         x="-162.8662"
         y="465.67422" /></text>
    <text
       xml:space="preserve"
       style="font-size:4px;font-style:normal;font-variant:normal;font-weight:normal;font-stretch:normal;line-height:125%;letter-spacing:0px;word-spacing:0px;fill:#000000;fill-opacity:1;stroke:none;font-family:Times New Roman;-inkscape-font-specification:Times New Roman"
       x="237.27921"
       y="47.276581"
       id="text3931"
       sodipodi:linespacing="125%"
       transform="translate(16.155341,736.7807)"><tspan
         sodipodi:role="line"
         id="tspan3933"
         x="237.27921"
         y="47.276581" /></text>
    <text
       xml:space="preserve"
       style="font-size:20px;font-style:normal;font-variant:normal;font-weight:normal;font-stretch:normal;line-height:125%;letter-spacing:0px;word-spacing:0px;fill:#000000;fill-opacity:1;stroke:none;font-family:Times New Roman;-inkscape-font-specification:Times New Roman"
       x="191.44487"
       y="68.613396"
       id="text3935"
       sodipodi:linespacing="125%"
       transform="translate(16.155341,736.7807)"><tspan
         sodipodi:role="line"
         id="tspan3937"
         x="191.44487"
         y="68.613396" /></text>
    <text
       xml:space="preserve"
       style="font-size:18px;font-style:normal;font-variant:normal;font-weight:normal;font-stretch:normal;line-height:125%;letter-spacing:0px;word-spacing:0px;fill:#000000;fill-opacity:1;stroke:none;font-family:Times New Roman;-inkscape-font-specification:Times New Roman"
       x="225.8774"
       y="63.104191"
       id="text3939"
       sodipodi:linespacing="125%"
       transform="translate(16.155341,736.7807)"><tspan
         sodipodi:role="line"
         id="tspan3941"
         x="225.8774"
         y="63.104191" /></text>
    <text
       xml:space="preserve"
       style="font-size:54.20718764999999500px;font-style:normal;font-variant:normal;font-weight:normal;font-stretch:normal;line-height:125%;letter-spacing:0px;word-spacing:0px;fill:#007932;fill-opacity:1;stroke:none;font-family:Times New Roman;-inkscape-font-specification:Times New Roman"
       x="279.72076"
       y="739.22791"
       id="text3943"
       sodipodi:linespacing="125%"
       transform="scale(0.92826762,1.0772755)"><tspan
         sodipodi:role="line"
         id="tspan3945"
         x="279.72076"
         y="739.22791">14</tspan></text>
    <path
       style="fill:#007932;fill-opacity:1;stroke:#ffffff;stroke-width:0.34612444;stroke-opacity:1"
       d="m 90.334815,887.47364 c 24.813025,-11.39138 42.381705,-23.1234 52.869275,-35.30489 4.6131,-5.35833 8.60845,-12.72371 10.21524,-18.83208 0.94751,-3.60151 0.86093,-12.40048 -0.15995,-16.17677 -1.5832,-5.86171 -5.74312,-13.51201 -10.43209,-19.18528 -10.15154,-12.28225 -27.9077,-25.05451 -50.268667,-36.15905 -3.512429,-1.74426 -6.789916,-3.33423 -7.283558,-3.53325 -0.493643,-0.19902 -0.815907,-0.42523 -0.71595,-0.50269 0.455937,-0.35389 21.068625,6.25566 33.692995,10.80374 40.93991,14.74919 67.81459,30.67144 77.48487,45.9071 2.86819,4.51886 3.62507,6.80266 3.90802,11.79303 0.2194,3.8675 0.15433,4.49263 -0.73786,7.12181 -2.05435,6.0517 -6.00872,11.10881 -13.16352,16.8342 -15.06471,12.05507 -39.88469,22.87725 -77.44538,33.76819 -8.715272,2.52711 -23.13885,6.35884 -23.546019,6.25525 -0.175179,-0.0446 2.336964,-1.29965 5.58171,-2.78931 l 0,0 z"
       id="path4097"
       inkscape:connector-curvature="0" />
    <path
       style="fill:#007932;fill-opacity:1;stroke:#ffffff;stroke-width:0.34612444;stroke-opacity:1;display:inline"
       d="m 89.075253,1007.0461 c 24.813007,-11.39151 42.381707,-23.12349 52.869277,-35.30497 4.61311,-5.35833 8.60845,-12.7237 10.21524,-18.83207 0.94751,-3.60152 0.86092,-12.4005 -0.15996,-16.17678 -1.5832,-5.86171 -5.74311,-13.51201 -10.43209,-19.18527 -10.15155,-12.28226 -27.90771,-25.05452 -50.268661,-36.15906 -3.512427,-1.74427 -6.789913,-3.33423 -7.283555,-3.53325 -0.493644,-0.19903 -0.815908,-0.42524 -0.715952,-0.50269 0.455939,-0.3539 21.068628,6.25566 33.692988,10.80374 40.93992,14.74918 67.81461,30.67145 77.48488,45.9071 2.8682,4.51886 3.62506,6.80266 3.90802,11.79303 0.2194,3.86749 0.15432,4.49263 -0.73786,7.12182 -2.05434,6.05168 -6.00873,11.10878 -13.16353,16.83419 -10.42755,8.34433 -25.52905,16.09793 -46.29457,23.69252 -9.23446,3.37732 -19.58904,6.72319 -31.1508,10.07559 -8.715275,2.5272 -23.138852,6.3588 -23.546022,6.2554 -0.175178,-0.044 2.336965,-1.2997 5.581712,-2.7893 l 0,0 z"
       id="path4097-3"
       inkscape:connector-curvature="0"
       sodipodi:nodetypes="csccssccssccssccccc" />
    <path
       style="fill:#007932;fill-opacity:1;stroke:#007932;stroke-width:1.89508712px;stroke-linecap:butt;stroke-linejoin:miter;stroke-opacity:1"
       d="M 62.509198,1005.145 87.155092,754.89883 82.726543,1009.5097 z"
       id="path3141"
       inkscape:connector-curvature="0"
       inkscape:export-xdpi="90"
       inkscape:export-ydpi="90"
       inkscape:export-filename="X:\work\webDev\bostonmicrotek\logowar\images\logo\BuTek_logo3_942x280.png" />
    <path
       style="fill:#007932;fill-opacity:1;stroke:#ffffff;stroke-width:0.23099918999999999;stroke-opacity:1;display:inline"
       d="m 228.16662,887.78833 c -2.51411,23.49038 -2.73442,41.66584 -0.66296,54.69524 0.91121,5.7312 2.85952,11.84178 4.9816,15.6236 1.25115,2.22987 5.02022,5.86834 6.92962,6.68868 2.96341,1.2745 7.45209,1.36039 11.25661,0.2155 8.2366,-2.4788 18.93745,-10.48107 30.29476,-22.6548 1.78399,-1.91225 3.43264,-3.71242 3.66373,-4.00058 0.23111,-0.28817 0.42293,-0.43576 0.42624,-0.32784 0.0153,0.49249 -8.91107,13.24103 -14.59081,20.83849 -18.41906,24.63799 -33.16492,38.18476 -42.51525,39.05778 -2.77332,0.259 -3.96941,-0.1321 -6.17644,-2.01941 -1.71043,-1.46266 -1.95709,-1.77479 -2.81101,-3.55364 -1.96516,-4.09532 -2.9436,-9.20345 -3.25703,-17.00419 -0.65991,-16.42481 2.09844,-39.68086 8.6069,-72.5653 1.51015,-7.63027 4.15855,-20.11063 4.32337,-20.37385 0.0709,-0.11324 -0.14035,2.30785 -0.46907,5.37967 l 0,0 z"
       id="path4097-3-2"
       inkscape:connector-curvature="0" />
    <path
       style="fill:#007932;fill-opacity:1;stroke:#ffffff;stroke-width:0.15429169000000001;stroke-opacity:1;display:inline"
       d="m 282.47705,890.17348 c -1.12088,23.50597 -1.21911,41.69349 -0.29557,54.73154 0.40625,5.735 1.27488,11.84963 2.22098,15.63396 0.55781,2.23135 2.2382,5.87229 3.08948,6.69312 1.32119,1.27535 3.32242,1.36128 5.01861,0.21566 3.67218,-2.4805 8.44302,-10.48804 13.50653,-22.66985 0.79536,-1.91352 1.53039,-3.71488 1.63342,-4.00323 0.10304,-0.28837 0.18856,-0.43606 0.19003,-0.32807 0.007,0.49282 -3.97288,13.24983 -6.50512,20.85233 -8.21189,24.65438 -14.78615,38.21006 -18.95487,39.08366 -1.23645,0.2592 -1.76971,-0.1322 -2.75368,-2.02072 -0.76258,-1.46361 -0.87255,-1.776 -1.25325,-3.55599 -0.87614,-4.09805 -1.31237,-9.20957 -1.45211,-17.01545 -0.29421,-16.43573 0.93556,-39.70722 3.83728,-72.61348 0.67328,-7.63533 1.85403,-20.12398 1.92751,-20.38737 0.0316,-0.11331 -0.0626,2.30938 -0.20912,5.38324 l 0,0 z"
       id="path4097-3-2-2"
       inkscape:connector-curvature="0" />
    <path
       style="fill:#007932;fill-opacity:1;stroke:#ffffff;stroke-width:0.25532115;stroke-opacity:1;display:inline"
       d="m 398.81049,826.01073 c 19.9989,-7.69055 34.15898,-15.61112 42.6118,-23.83512 3.71808,-3.61754 6.93828,-8.59005 8.23333,-12.71397 0.76366,-2.43147 0.69388,-8.37183 -0.12894,-10.9213 -1.27602,-3.95738 -4.62885,-9.12224 -8.40809,-12.95243 -8.18199,-8.292 -22.49317,-16.91476 -40.51575,-24.4118 -2.83096,-1.17755 -5.47256,-2.25093 -5.87043,-2.38527 -0.39786,-0.13444 -0.65762,-0.28717 -0.57705,-0.33943 0.36749,-0.23886 16.98099,4.22339 27.15602,7.29383 32.99691,9.9575 54.65749,20.70694 62.45157,30.9929 2.31173,3.0508 2.92176,4.59264 3.1498,7.96179 0.17684,2.61099 0.1244,3.03309 -0.59469,4.80806 -1.65578,4.08566 -4.84294,7.49982 -10.6096,11.36515 -12.1419,8.13863 -32.14642,15.44492 -62.41974,22.79765 -7.02436,1.70611 -18.64954,4.293 -18.97771,4.22305 -0.1412,-0.0303 1.88355,-0.87742 4.49877,-1.88311 l 0,0 z"
       id="path4097-5"
       inkscape:connector-curvature="0" />
    <path
       style="fill:#007932;fill-opacity:1;stroke:#ffffff;stroke-width:0.25532115;stroke-opacity:1;display:inline"
       d="m 397.7953,906.73676 c 19.99889,-7.69064 34.15898,-15.61112 42.6118,-23.83512 3.7181,-3.61754 6.93826,-8.59014 8.23331,-12.71398 0.76369,-2.43147 0.6939,-8.37183 -0.12892,-10.9213 -1.27602,-3.95738 -4.62885,-9.12222 -8.4081,-12.95241 -8.18198,-8.29202 -22.49316,-16.91485 -40.51574,-24.4118 -2.83096,-1.17765 -5.47256,-2.25102 -5.87042,-2.38537 -0.39788,-0.13436 -0.65762,-0.28708 -0.57705,-0.33933 0.36749,-0.23896 16.98097,4.22329 27.15601,7.29382 32.99692,9.9575 54.65749,20.70694 62.45157,30.9929 2.31173,3.05079 2.92175,4.59263 3.14981,7.9617 0.17684,2.61108 0.12439,3.0331 -0.5947,4.80815 -1.65577,4.08558 -4.84293,7.49974 -10.60959,11.36507 -12.14192,8.1387 -32.14643,15.44499 -62.41974,22.79765 -7.02437,1.7061 -18.64954,4.293 -18.97772,4.22312 -0.14119,-0.0303 1.88356,-0.87741 4.49877,-1.8831 l 0,0 z"
       id="path4097-3-1"
       inkscape:connector-curvature="0" />
    <path
       style="fill:#007932;fill-opacity:1;stroke:#ffffff;stroke-width:1.3979243px;stroke-linecap:butt;stroke-linejoin:miter;stroke-opacity:1;display:inline"
       d="m 382.66085,905.45325 19.8642,-168.94672 -3.56934,171.89352 z"
       id="path3141-2"
       inkscape:connector-curvature="0"
       inkscape:export-xdpi="90"
       inkscape:export-ydpi="90"
       inkscape:export-filename="X:\work\webDev\bostonmicrotek\logowar\images\logo\BuTek_logo3_942x280.png" />
    <path
       style="fill:none;stroke:#007932;stroke-width:9.6452055;stroke-linecap:round;stroke-linejoin:bevel;stroke-miterlimit:4;stroke-opacity:1;stroke-dasharray:none"
       d="m 51.437113,748.23384 272.103237,0 0,271.16036 -272.266101,0.7987 z"
       id="path4014"
       inkscape:connector-curvature="0"
       sodipodi:nodetypes="cccc" />
  </g>
  <g
     inkscape:groupmode="layer"
     id="layer3"
     inkscape:label="Logo"
     transform="translate(-16.155341,-736.7807)">
    <text
       xml:space="preserve"
       style="font-size:40px;font-style:normal;font-variant:normal;font-weight:normal;font-stretch:normal;line-height:125%;letter-spacing:0px;word-spacing:0px;fill:#000000;fill-opacity:1;stroke:none;font-family:OpenSymbol;-inkscape-font-specification:OpenSymbol"
       x="124.37522"
       y="390.79645"
       id="text5219"
       sodipodi:linespacing="125%"
       transform="translate(0,284.36218)"><tspan
         sodipodi:role="line"
         id="tspan5221"
         x="124.37522"
         y="390.79645" /></text>
    <text
       xml:space="preserve"
       style="font-size:40px;font-style:normal;font-variant:normal;font-weight:normal;font-stretch:normal;line-height:125%;letter-spacing:0px;word-spacing:0px;fill:#000000;fill-opacity:1;stroke:none;font-family:OpenSymbol;-inkscape-font-specification:OpenSymbol"
       x="126.41416"
       y="373.8053"
       id="text5223"
       sodipodi:linespacing="125%"
       transform="translate(0,284.36218)"><tspan
         sodipodi:role="line"
         id="tspan5225"
         x="126.41416"
         y="373.8053" /></text>
    <text
       xml:space="preserve"
       style="font-size:40px;font-style:normal;font-variant:normal;font-weight:normal;font-stretch:normal;line-height:125%;letter-spacing:0px;word-spacing:0px;fill:#000000;fill-opacity:1;stroke:none;font-family:OpenSymbol;-inkscape-font-specification:OpenSymbol"
       x="112.14159"
       y="378.56284"
       id="text5243"
       sodipodi:linespacing="125%"
       transform="translate(0,284.36218)"><tspan
         sodipodi:role="line"
         id="tspan5245"
         x="112.14159"
         y="378.56284" /></text>
    <text
       xml:space="preserve"
       style="font-size:144px;font-style:normal;font-variant:normal;font-weight:normal;font-stretch:normal;line-height:125%;letter-spacing:0px;word-spacing:0px;fill:#ffffff;fill-opacity:1;stroke:none;font-family:Eras Medium ITC;-inkscape-font-specification:Eras Medium ITC"
       x="71.126183"
       y="179.28162"
       id="text5344"
       sodipodi:linespacing="125%"
       transform="translate(0,742.36218)"><tspan
         sodipodi:role="line"
         id="tspan5346"
         x="71.126183"
         y="179.28162">χ</tspan></text>
    <text
       xml:space="preserve"
       style="font-size:370px;font-style:normal;font-variant:normal;font-weight:normal;font-stretch:normal;line-height:125%;letter-spacing:0px;word-spacing:0px;fill:#ffffff;fill-opacity:1;stroke:none;font-family:OpenSymbol;-inkscape-font-specification:OpenSymbol"
       x="82.669243"
       y="934.4115"
       id="text5352"
       sodipodi:linespacing="125%"><tspan
         sodipodi:role="line"
         id="tspan5354"
         x="82.669243"
         y="934.4115" /></text>
  </g>
  <g
     inkscape:groupmode="layer"
     id="layer4"
     inkscape:label="CompanyName"
     transform="translate(-16.155341,-452.41852)">
    <text
       xml:space="preserve"
       style="font-size:40px;font-style:normal;font-variant:normal;font-weight:normal;font-stretch:normal;line-height:125%;letter-spacing:0px;word-spacing:0px;fill:#000000;fill-opacity:1;stroke:none;font-family:Engravers MT;-inkscape-font-specification:Engravers MT"
       x="422.73981"
       y="577.6991"
       id="text5276"
       sodipodi:linespacing="125%"><tspan
         sodipodi:role="line"
         id="tspan5278"
         x="422.73981"
         y="577.6991" /></text>
    <text
       xml:space="preserve"
       style="font-size:72px;font-style:normal;font-variant:normal;font-weight:normal;font-stretch:normal;line-height:125%;letter-spacing:0px;word-spacing:0px;fill:#323d4e;fill-opacity:1;stroke:none;font-family:Rockwell;-inkscape-font-specification:Rockwell"
       x="359.86133"
       y="742.84479"
       id="text5340"
       sodipodi:linespacing="125%"><tspan
         sodipodi:role="line"
         id="tspan5342"
         x="359.86133"
         y="742.84479" /></text>
    <text
       xml:space="preserve"
       style="font-size:203.09889221px;font-style:normal;font-variant:normal;font-weight:normal;font-stretch:normal;line-height:125%;letter-spacing:0px;word-spacing:0px;fill:#007932;fill-opacity:1;stroke:none;font-family:Arabic Typesetting;-inkscape-font-specification:Arabic Typesetting"
       x="502.50693"
       y="605.26929"
       id="text3947"
       sodipodi:linespacing="125%"
       transform="scale(0.99679024,1.0032201)"
       inkscape:export-filename="X:\work\webDev\bostonmicrotek\logowar\images\logo\BuTek_logo6_942x280.png"
       inkscape:export-xdpi="90"
       inkscape:export-ydpi="90"><tspan
         sodipodi:role="line"
         id="tspan3949"
         x="502.50693"
         y="605.26929">OSTON</tspan></text>
    <text
       xml:space="preserve"
       style="font-size:144px;font-style:normal;font-variant:normal;font-weight:normal;font-stretch:normal;line-height:125%;letter-spacing:0px;word-spacing:0px;fill:#000000;fill-opacity:1;stroke:none;font-family:Bodoni MT;-inkscape-font-specification:Bodoni MT"
       x="364.98483"
       y="-77.380531"
       id="text3951"
       sodipodi:linespacing="125%"
       transform="translate(16.155341,452.41852)"><tspan
         sodipodi:role="line"
         id="tspan3953"
         x="364.98483"
         y="-77.380531" /></text>
    <text
       xml:space="preserve"
       style="font-size:90.6681366px;font-style:normal;font-variant:normal;font-weight:normal;font-stretch:normal;line-height:125%;letter-spacing:0px;word-spacing:0px;fill:#002e00;fill-opacity:1;stroke:none;font-family:Bodoni MT;-inkscape-font-specification:Bodoni MT"
       x="393.57819"
       y="669.86401"
       id="text3959"
       sodipodi:linespacing="125%"
       transform="scale(0.94656688,1.0564494)"><tspan
         sodipodi:role="line"
         id="tspan3961"
         x="393.57819"
         y="669.86401">Microtechnology</tspan></text>
  </g>
</svg>
