<?xml version="1.0" encoding="UTF-8" standalone="no"?>
<!-- Created with Inkscape (http://www.inkscape.org/) -->

<svg
   xmlns:osb="http://www.openswatchbook.org/uri/2009/osb"
   xmlns:dc="http://purl.org/dc/elements/1.1/"
   xmlns:cc="http://creativecommons.org/ns#"
   xmlns:rdf="http://www.w3.org/1999/02/22-rdf-syntax-ns#"
   xmlns:svg="http://www.w3.org/2000/svg"
   xmlns="http://www.w3.org/2000/svg"
   xmlns:sodipodi="http://sodipodi.sourceforge.net/DTD/sodipodi-0.dtd"
   xmlns:inkscape="http://www.inkscape.org/namespaces/inkscape"
   width="1000"
   height="300"
   id="svg2"
   version="1.1"
   inkscape:version="0.48.4 r9939"
   sodipodi:docname="BuTekLogo10.svg"
   inkscape:export-filename="X:\work\webDev\bostonmicrotek\logocon\images\logo\BuTek_logo9_942x280.png"
   inkscape:export-xdpi="90"
   inkscape:export-ydpi="90">
  <defs
     id="defs4">
    <linearGradient
       id="linearGradient5200"
       osb:paint="solid">
      <stop
         style="stop-color:#055ccd;stop-opacity:1;"
         offset="0"
         id="stop5202" />
    </linearGradient>
  </defs>
  <sodipodi:namedview
     id="base"
     pagecolor="#ffffff"
     bordercolor="#666666"
     borderopacity="1.0"
     inkscape:pageopacity="0.0"
     inkscape:pageshadow="2"
     inkscape:zoom="1.1159195"
     inkscape:cx="498.09795"
     inkscape:cy="149.63285"
     inkscape:document-units="px"
     inkscape:current-layer="layer2"
     showgrid="false"
     inkscape:window-width="1522"
     inkscape:window-height="975"
     inkscape:window-x="226"
     inkscape:window-y="33"
     inkscape:window-maximized="0"
     showborder="true"
     borderlayer="true"
     fit-margin-top="0"
     fit-margin-left="0"
     fit-margin-right="0"
     fit-margin-bottom="0" />
  <metadata
     id="metadata7">
    <rdf:RDF>
      <cc:Work
         rdf:about="">
        <dc:format>image/svg+xml</dc:format>
        <dc:type
           rdf:resource="http://purl.org/dc/dcmitype/StillImage" />
        <dc:title></dc:title>
      </cc:Work>
    </rdf:RDF>
  </metadata>
  <g
     inkscape:label="Layer 1"
     inkscape:groupmode="layer"
     id="layer1"
     transform="translate(-16.155341,-736.7807)"
     style="display:none" />
  <g
     inkscape:groupmode="layer"
     id="layer2"
     inkscape:label="LogoBG"
     transform="translate(-16.155341,-736.7807)"
     style="display:inline">
    <rect
       style="fill:#007932;fill-opacity:1;fill-rule:evenodd;stroke:#000000;stroke-width:0.87227416px;stroke-linecap:butt;stroke-linejoin:miter;stroke-opacity:1"
       id="rect2986"
       width="279.12772"
       height="279.12772"
       x="43.777321"
       y="747.58398" />
    <text
       xml:space="preserve"
       style="font-size:40px;font-style:normal;font-variant:normal;font-weight:normal;font-stretch:normal;line-height:125%;letter-spacing:0px;word-spacing:0px;fill:#000000;fill-opacity:1;stroke:none;font-family:Kredit;-inkscape-font-specification:Kredit"
       x="337.10443"
       y="316.71503"
       id="text5304"
       sodipodi:linespacing="125%"
       transform="translate(0,284.36218)"><tspan
         sodipodi:role="line"
         id="tspan5306"
         x="337.10443"
         y="316.71503" /></text>
    <text
       xml:space="preserve"
       style="font-size:40px;font-style:normal;font-variant:normal;font-weight:normal;font-stretch:normal;line-height:125%;letter-spacing:0px;word-spacing:0px;fill:#000000;fill-opacity:1;stroke:none;font-family:Liberation Sans Narrow;-inkscape-font-specification:Liberation Sans Narrow"
       x="437.69205"
       y="550.51324"
       id="text5316"
       sodipodi:linespacing="125%"
       transform="translate(0,284.36218)"><tspan
         sodipodi:role="line"
         id="tspan5318"
         x="437.69205"
         y="550.51324" /></text>
    <text
       xml:space="preserve"
       style="font-size:40px;font-style:normal;font-variant:normal;font-weight:normal;font-stretch:normal;line-height:125%;letter-spacing:0px;word-spacing:0px;fill:#000000;fill-opacity:1;stroke:none;font-family:Liberation Mono;-inkscape-font-specification:Liberation Mono"
       x="362.93097"
       y="589.93274"
       id="text5320"
       sodipodi:linespacing="125%"
       transform="translate(0,284.36218)"><tspan
         sodipodi:role="line"
         id="tspan5322"
         x="362.93097"
         y="589.93274" /></text>
    <text
       xml:space="preserve"
       style="font-size:144px;font-style:normal;font-variant:normal;font-weight:normal;font-stretch:normal;line-height:125%;letter-spacing:0px;word-spacing:0px;fill:#000000;fill-opacity:1;stroke:none;font-family:OpenSymbol;-inkscape-font-specification:OpenSymbol"
       x="68.094917"
       y="158.19408"
       id="text3885"
       sodipodi:linespacing="125%"
       transform="translate(16.155341,736.7807)"><tspan
         sodipodi:role="line"
         id="tspan3887"
         x="68.094917"
         y="158.19408" /></text>
    <text
       xml:space="preserve"
       style="font-size:144px;font-style:normal;font-variant:normal;font-weight:600;font-stretch:normal;line-height:125%;letter-spacing:0px;word-spacing:0px;fill:#000000;fill-opacity:1;stroke:none;font-family:Bookman Old Style;-inkscape-font-specification:Bookman Old Style Semi-Bold"
       x="70.902962"
       y="123.09361"
       id="text3889"
       sodipodi:linespacing="125%"
       transform="translate(16.155341,736.7807)"><tspan
         sodipodi:role="line"
         id="tspan3891"
         x="70.902962"
         y="123.09361" /></text>
    <text
       xml:space="preserve"
       style="font-size:144px;font-style:normal;font-variant:normal;font-weight:300;font-stretch:normal;line-height:125%;letter-spacing:0px;word-spacing:0px;fill:#000000;fill-opacity:1;stroke:none;font-family:Bookman Old Style;-inkscape-font-specification:Bookman Old Style Light"
       x="93.367264"
       y="94.311218"
       id="text3893"
       sodipodi:linespacing="125%"
       transform="translate(16.155341,736.7807)"><tspan
         sodipodi:role="line"
         id="tspan3895"
         x="93.367264"
         y="94.311218" /></text>
    <text
       xml:space="preserve"
       style="font-size:144px;font-style:normal;font-variant:normal;font-weight:normal;font-stretch:normal;line-height:125%;letter-spacing:0px;word-spacing:0px;fill:#000000;fill-opacity:1;stroke:none;font-family:Britannic Bold;-inkscape-font-specification:Britannic Bold"
       x="146.71999"
       y="113.26547"
       id="text3897"
       sodipodi:linespacing="125%"
       transform="translate(16.155341,736.7807)"><tspan
         sodipodi:role="line"
         id="tspan3899"
         x="146.71999"
         y="113.26547" /></text>
    <text
       xml:space="preserve"
       style="font-size:144px;font-style:normal;font-variant:normal;font-weight:normal;font-stretch:normal;line-height:125%;letter-spacing:0px;word-spacing:0px;fill:#000000;fill-opacity:1;stroke:none;font-family:DFKai-SB;-inkscape-font-specification:DFKai-SB"
       x="108.10946"
       y="143.45187"
       id="text3901"
       sodipodi:linespacing="125%"
       transform="translate(16.155341,736.7807)"><tspan
         sodipodi:role="line"
         id="tspan3903"
         x="108.10946"
         y="143.45187" /></text>
    <text
       xml:space="preserve"
       style="font-size:144px;font-style:normal;font-variant:normal;font-weight:normal;font-stretch:normal;line-height:125%;letter-spacing:0px;word-spacing:0px;fill:#000000;fill-opacity:1;stroke:none;font-family:OpenSymbol;-inkscape-font-specification:OpenSymbol"
       x="-121.44764"
       y="125.19964"
       id="text3905"
       sodipodi:linespacing="125%"
       transform="translate(16.155341,736.7807)"><tspan
         sodipodi:role="line"
         id="tspan3907"
         x="-121.44764"
         y="125.19964" /></text>
    <text
       xml:space="preserve"
       style="font-size:144px;font-style:normal;font-variant:normal;font-weight:normal;font-stretch:normal;line-height:125%;letter-spacing:0px;word-spacing:0px;fill:#000000;fill-opacity:1;stroke:none;font-family:Planet Benson 2;-inkscape-font-specification:Planet Benson 2"
       x="61.776836"
       y="109.75543"
       id="text3909"
       sodipodi:linespacing="125%"
       transform="translate(16.155341,736.7807)"><tspan
         sodipodi:role="line"
         id="tspan3911"
         x="61.776836"
         y="109.75543" /></text>
    <text
       xml:space="preserve"
       style="font-size:144px;font-style:normal;font-variant:normal;font-weight:normal;font-stretch:normal;line-height:125%;letter-spacing:0px;word-spacing:0px;fill:#000000;fill-opacity:1;stroke:none;font-family:QuickType II Pi;-inkscape-font-specification:QuickType II Pi"
       x="-125.6597"
       y="260.68747"
       id="text3913"
       sodipodi:linespacing="125%"
       transform="translate(16.155341,736.7807)"><tspan
         sodipodi:role="line"
         id="tspan3915"
         x="-125.6597"
         y="260.68747" /></text>
    <text
       xml:space="preserve"
       style="font-size:144px;font-style:normal;font-variant:normal;font-weight:normal;font-stretch:normal;line-height:125%;letter-spacing:0px;word-spacing:0px;fill:#000000;fill-opacity:1;stroke:none;font-family:Traditional Arabic;-inkscape-font-specification:Traditional Arabic"
       x="-187.43652"
       y="160.30011"
       id="text3917"
       sodipodi:linespacing="125%"
       transform="translate(16.155341,736.7807)"><tspan
         sodipodi:role="line"
         id="tspan3919"
         x="-187.43652"
         y="160.30011" /></text>
    <text
       xml:space="preserve"
       style="font-size:144px;font-style:normal;font-variant:normal;font-weight:normal;font-stretch:normal;line-height:125%;letter-spacing:0px;word-spacing:0px;fill:#000000;fill-opacity:1;stroke:none;font-family:Planet Benson 2;-inkscape-font-specification:Planet Benson 2"
       x="-162.8662"
       y="465.67422"
       id="text3921"
       sodipodi:linespacing="125%"
       transform="translate(16.155341,736.7807)"><tspan
         sodipodi:role="line"
         id="tspan3923"
         x="-162.8662"
         y="465.67422" /></text>
    <text
       xml:space="preserve"
       style="font-size:4px;font-style:normal;font-variant:normal;font-weight:normal;font-stretch:normal;line-height:125%;letter-spacing:0px;word-spacing:0px;fill:#000000;fill-opacity:1;stroke:none;font-family:Times New Roman;-inkscape-font-specification:Times New Roman"
       x="237.27921"
       y="47.276581"
       id="text3931"
       sodipodi:linespacing="125%"
       transform="translate(16.155341,736.7807)"><tspan
         sodipodi:role="line"
         id="tspan3933"
         x="237.27921"
         y="47.276581" /></text>
    <text
       xml:space="preserve"
       style="font-size:20px;font-style:normal;font-variant:normal;font-weight:normal;font-stretch:normal;line-height:125%;letter-spacing:0px;word-spacing:0px;fill:#000000;fill-opacity:1;stroke:none;font-family:Times New Roman;-inkscape-font-specification:Times New Roman"
       x="191.44487"
       y="68.613396"
       id="text3935"
       sodipodi:linespacing="125%"
       transform="translate(16.155341,736.7807)"><tspan
         sodipodi:role="line"
         id="tspan3937"
         x="191.44487"
         y="68.613396" /></text>
    <text
       xml:space="preserve"
       style="font-size:18px;font-style:normal;font-variant:normal;font-weight:normal;font-stretch:normal;line-height:125%;letter-spacing:0px;word-spacing:0px;fill:#000000;fill-opacity:1;stroke:none;font-family:Times New Roman;-inkscape-font-specification:Times New Roman"
       x="225.8774"
       y="63.104191"
       id="text3939"
       sodipodi:linespacing="125%"
       transform="translate(16.155341,736.7807)"><tspan
         sodipodi:role="line"
         id="tspan3941"
         x="225.8774"
         y="63.104191" /></text>
    <text
       xml:space="preserve"
       style="font-size:34.4986763px;font-style:normal;font-variant:normal;font-weight:normal;font-stretch:normal;line-height:125%;letter-spacing:0px;word-spacing:0px;fill:#ffffff;fill-opacity:1;stroke:none;font-family:Times New Roman;-inkscape-font-specification:Times New Roman"
       x="276.97519"
       y="783.16083"
       id="text3943"
       sodipodi:linespacing="125%"
       transform="scale(0.99917638,1.0008243)"><tspan
         sodipodi:role="line"
         id="tspan3945"
         x="276.97519"
         y="783.16083">14</tspan></text>
    <path
       style="fill:#ffffff;fill-opacity:1;stroke:#ffffff;stroke-width:9.01536274;stroke-linecap:round;stroke-linejoin:bevel;stroke-miterlimit:4;stroke-opacity:1;stroke-dasharray:none;display:inline"
       d="m 185.7471,769.77001 c -64.75722,0 -117.246755,53.05537 -117.246755,118.50827 0,65.4528 52.489535,118.50822 117.246755,118.50822 64.75722,0 117.27476,-53.05542 117.27476,-118.50822 0,-65.4529 -52.51754,-118.50827 -117.27476,-118.50827 z m 0,1.81448 c 63.75904,0 115.45503,52.15129 115.45503,116.46699 0,64.3156 -51.69599,116.43852 -115.45503,116.43852 -63.75903,0 -115.427022,-52.12292 -115.427022,-116.43852 0,-64.3157 51.667992,-116.46699 115.427022,-116.46699 z"
       id="path5649"
       inkscape:connector-curvature="0" />
    <path
       transform="translate(18.060233,753.70785)"
       sodipodi:type="arc"
       style="fill:#ffffff;fill-opacity:1;stroke:#ffffff;stroke-width:10;stroke-linecap:round;stroke-linejoin:bevel;stroke-miterlimit:4;stroke-opacity:1;stroke-dasharray:none;display:inline"
       id="path5654"
       sodipodi:cx="50.68853"
       sodipodi:cy="135.82968"
       sodipodi:rx="12.356906"
       sodipodi:ry="12.356906"
       d="m 63.045436,135.82968 a 12.356906,12.356906 0 1 1 -24.713812,0 12.356906,12.356906 0 1 1 24.713812,0 z" />
    <path
       transform="translate(139.35965,637.45207)"
       sodipodi:type="arc"
       style="fill:#ffffff;fill-opacity:1;stroke:#ffffff;stroke-width:10;stroke-linecap:round;stroke-linejoin:bevel;stroke-miterlimit:4;stroke-opacity:1;stroke-dasharray:none;display:inline"
       id="path5654-8"
       sodipodi:cx="50.68853"
       sodipodi:cy="135.82968"
       sodipodi:rx="12.356906"
       sodipodi:ry="12.356906"
       d="m 63.045436,135.82968 a 12.356906,12.356906 0 1 1 -24.713812,0 12.356906,12.356906 0 1 1 24.713812,0 z" />
    <path
       transform="translate(249.81525,752.44693)"
       sodipodi:type="arc"
       style="fill:#ffffff;fill-opacity:1;stroke:#ffffff;stroke-width:10;stroke-linecap:round;stroke-linejoin:bevel;stroke-miterlimit:4;stroke-opacity:1;stroke-dasharray:none;display:inline"
       id="path5654-8-8"
       sodipodi:cx="50.68853"
       sodipodi:cy="135.82968"
       sodipodi:rx="12.356906"
       sodipodi:ry="12.356906"
       d="m 63.045436,135.82968 a 12.356906,12.356906 0 1 1 -24.713812,0 12.356906,12.356906 0 1 1 24.713812,0 z" />
    <path
       transform="translate(133.81166,866.93748)"
       sodipodi:type="arc"
       style="fill:#ffffff;fill-opacity:1;stroke:#ffffff;stroke-width:10;stroke-linecap:round;stroke-linejoin:bevel;stroke-miterlimit:4;stroke-opacity:1;stroke-dasharray:none;display:inline"
       id="path5654-8-3"
       sodipodi:cx="50.68853"
       sodipodi:cy="135.82968"
       sodipodi:rx="12.356906"
       sodipodi:ry="12.356906"
       d="m 63.045436,135.82968 a 12.356906,12.356906 0 1 1 -24.713812,0 12.356906,12.356906 0 1 1 24.713812,0 z" />
    <path
       style="fill:#ffffff;fill-opacity:1;stroke:#ffffff;stroke-width:0.2162786;stroke-opacity:1;display:inline"
       d="m 130.51369,888.20884 c 15.37277,-7.17896 26.25735,-14.57258 32.75539,-22.24946 2.85764,-3.37688 5.33291,-8.0186 6.32884,-11.86814 0.5869,-2.26971 0.53298,-7.8149 -0.0992,-10.19475 -0.98106,-3.69411 -3.55857,-8.5154 -6.46333,-12.09074 -6.28917,-7.74039 -17.29027,-15.78958 -31.14405,-22.78776 -2.17592,-1.09925 -4.20682,-2.10126 -4.51236,-2.22669 -0.30616,-0.12542 -0.50572,-0.26798 -0.44374,-0.31679 0.2826,-0.22303 13.05307,3.94237 20.87425,6.80861 25.36494,9.29507 42.01501,19.32942 48.00609,28.93107 1.77681,2.84783 2.24595,4.28709 2.42134,7.43206 0.13573,2.43734 0.0954,2.83132 -0.45737,4.48824 -1.27234,3.81383 -3.72219,7.00088 -8.15523,10.60907 -9.33336,7.5972 -24.71048,14.41743 -47.98129,21.28101 -5.39984,1.5926 -14.33594,4.0074 -14.58818,3.94211 -0.10846,-0.0281 1.44772,-0.81905 3.45817,-1.75784 l 0,0 z"
       id="path4097-34"
       inkscape:connector-curvature="0" />
    <path
       style="fill:#ffffff;fill-opacity:1;stroke:#ffffff;stroke-width:0.2162786;stroke-opacity:1;display:inline"
       d="m 129.73343,963.56442 c 15.37278,-7.17898 26.25736,-14.57262 32.75476,-22.2495 2.85827,-3.37687 5.33353,-8.01861 6.32947,-11.86812 0.5869,-2.26969 0.53298,-7.81488 -0.0992,-10.19473 -0.98106,-3.6941 -3.55857,-8.51539 -6.46333,-12.09073 -6.28978,-7.74039 -17.29027,-15.78958 -31.14405,-22.78776 -2.17655,-1.09925 -4.20682,-2.10127 -4.51298,-2.22669 -0.30554,-0.12543 -0.5051,-0.26798 -0.44312,-0.3168 0.2826,-0.22303 13.05307,3.94238 20.87426,6.80861 25.36431,9.29507 42.015,19.32942 48.00608,28.93108 1.77681,2.84782 2.24595,4.28709 2.42134,7.43206 0.13573,2.43733 0.0954,2.8313 -0.45737,4.48826 -1.27296,3.81376 -3.72282,7.00083 -8.15523,10.60902 -9.33336,7.59722 -24.7111,14.41741 -47.98191,21.28101 -5.39922,1.5926 -14.33532,4.00739 -14.58756,3.94215 -0.10846,-0.028 1.44772,-0.81906 3.45818,-1.75786 l 0,0 z"
       id="path4097-3-4"
       inkscape:connector-curvature="0" />
    <path
       style="fill:#ffffff;fill-opacity:1;stroke:#ffffff;stroke-width:0.1375172;stroke-opacity:1;display:inline"
       d="m 222.40393,885.83992 c -1.55804,13.43291 -1.69439,23.8265 -0.4109,31.27732 0.56458,3.27738 1.77248,6.77169 3.08758,8.93431 0.77529,1.27515 3.11111,3.3558 4.2942,3.82488 1.83693,0.72882 4.61835,0.77795 6.97648,0.12323 5.10421,-1.4175 11.73611,-5.99354 18.77517,-12.95505 1.10562,-1.09352 2.12697,-2.12293 2.27013,-2.28772 0.14316,-0.16479 0.26216,-0.24918 0.26464,-0.18747 0.0124,0.28162 -5.52255,7.57185 -9.04271,11.91643 -11.41508,14.08916 -20.55384,21.83581 -26.34845,22.33503 -1.71919,0.14811 -2.46041,-0.0755 -3.82818,-1.15479 -1.05976,-0.83638 -1.21284,-1.01491 -1.7421,-2.03212 -1.2178,-2.34188 -1.82454,-5.26299 -2.01851,-9.7238 -0.40902,-9.39246 1.30022,-22.69136 5.33414,-41.49624 0.93582,-4.36335 2.57691,-11.50021 2.67916,-11.65074 0.0434,-0.0647 -0.0867,1.31974 -0.29065,3.07636 l 0,0 z"
       id="path4097-3-2-0"
       inkscape:connector-curvature="0" />
    <path
       style="fill:#ffffff;fill-opacity:1;stroke:#ffffff;stroke-width:0.0918521;stroke-opacity:1;display:inline"
       d="m 256.06229,887.20385 c -0.69412,13.44183 -0.75547,23.84232 -0.18283,31.2981 0.25161,3.27954 0.79017,6.77617 1.37646,8.94023 0.34581,1.27598 1.38697,3.35802 1.91439,3.82739 0.81868,0.72933 2.0594,0.77845 3.11049,0.12335 2.27571,-1.41841 5.23251,-5.99753 8.37028,-12.96366 0.49332,-1.09424 0.94883,-2.12434 1.01267,-2.28924 0.0639,-0.1649 0.11651,-0.24937 0.11775,-0.1876 0,0.2818 -2.46225,7.57687 -4.03145,11.92435 -5.08934,14.09852 -9.16355,21.85026 -11.74726,22.34982 -0.76663,0.14822 -1.09696,-0.0756 -1.70678,-1.15552 -0.47224,-0.83696 -0.54042,-1.01561 -0.77655,-2.03349 -0.54289,-2.34344 -0.8131,-5.26644 -0.89986,-9.73021 -0.18221,-9.39872 0.57946,-22.70645 2.37796,-41.5238 0.41709,-4.36626 1.14901,-11.50785 1.19487,-11.65847 0.0186,-0.0648 -0.0372,1.32061 -0.12954,3.07839 l 0,0 z"
       id="path4097-3-2-2-6"
       inkscape:connector-curvature="0" />
    <path
       style="fill:#ffffff;fill-opacity:1;stroke:#ffffff;stroke-width:0.19581886;stroke-opacity:1;display:inline"
       d="m 114.55456,968.38815 c 6.30627,-14.34573 10.77141,-29.12041 13.4368,-44.46109 1.17254,-6.74798 2.18797,-16.02356 2.59651,-23.71602 0.24076,-4.53551 0.21863,-15.61643 -0.0408,-20.37208 -0.40245,-7.3819 -1.45981,-17.01627 -2.6514,-24.16085 -2.58023,-15.46761 -7.0929,-31.55228 -12.77606,-45.5367 -0.89289,-2.19664 -1.72575,-4.19897 -1.85134,-4.4496 -0.12522,-0.25064 -0.20721,-0.53549 -0.1818,-0.63305 0.11591,-0.44569 5.3547,7.87804 8.56316,13.60563 10.40507,18.57429 17.2356,38.6259 19.69328,57.81285 0.72891,5.69079 0.92135,8.56687 0.99329,14.85147 0.0557,4.87049 0.0391,5.65776 -0.18761,8.96886 -0.5222,7.62103 -1.52721,13.98972 -3.34548,21.19996 -3.82877,15.1815 -10.1371,28.81026 -19.68337,42.52577 -2.2149,3.18248 -5.88073,8.00795 -5.98419,7.87758 -0.0445,-0.056 0.59388,-1.63673 1.41862,-3.51273 l 0,0 z"
       id="path4097-3-4-6"
       inkscape:connector-curvature="0" />
  </g>
  <g
     inkscape:groupmode="layer"
     id="layer3"
     inkscape:label="Logo"
     transform="translate(-16.155341,-736.7807)">
    <text
       xml:space="preserve"
       style="font-size:40px;font-style:normal;font-variant:normal;font-weight:normal;font-stretch:normal;line-height:125%;letter-spacing:0px;word-spacing:0px;fill:#000000;fill-opacity:1;stroke:none;font-family:OpenSymbol;-inkscape-font-specification:OpenSymbol"
       x="124.37522"
       y="390.79645"
       id="text5219"
       sodipodi:linespacing="125%"
       transform="translate(0,284.36218)"><tspan
         sodipodi:role="line"
         id="tspan5221"
         x="124.37522"
         y="390.79645" /></text>
    <text
       xml:space="preserve"
       style="font-size:40px;font-style:normal;font-variant:normal;font-weight:normal;font-stretch:normal;line-height:125%;letter-spacing:0px;word-spacing:0px;fill:#000000;fill-opacity:1;stroke:none;font-family:OpenSymbol;-inkscape-font-specification:OpenSymbol"
       x="126.41416"
       y="373.8053"
       id="text5223"
       sodipodi:linespacing="125%"
       transform="translate(0,284.36218)"><tspan
         sodipodi:role="line"
         id="tspan5225"
         x="126.41416"
         y="373.8053" /></text>
    <text
       xml:space="preserve"
       style="font-size:40px;font-style:normal;font-variant:normal;font-weight:normal;font-stretch:normal;line-height:125%;letter-spacing:0px;word-spacing:0px;fill:#000000;fill-opacity:1;stroke:none;font-family:OpenSymbol;-inkscape-font-specification:OpenSymbol"
       x="112.14159"
       y="378.56284"
       id="text5243"
       sodipodi:linespacing="125%"
       transform="translate(0,284.36218)"><tspan
         sodipodi:role="line"
         id="tspan5245"
         x="112.14159"
         y="378.56284" /></text>
    <text
       xml:space="preserve"
       style="font-size:144px;font-style:normal;font-variant:normal;font-weight:normal;font-stretch:normal;line-height:125%;letter-spacing:0px;word-spacing:0px;fill:#ffffff;fill-opacity:1;stroke:none;font-family:Eras Medium ITC;-inkscape-font-specification:Eras Medium ITC"
       x="71.126183"
       y="179.28162"
       id="text5344"
       sodipodi:linespacing="125%"
       transform="translate(0,742.36218)"><tspan
         sodipodi:role="line"
         id="tspan5346"
         x="71.126183"
         y="179.28162">χ</tspan></text>
    <text
       xml:space="preserve"
       style="font-size:370px;font-style:normal;font-variant:normal;font-weight:normal;font-stretch:normal;line-height:125%;letter-spacing:0px;word-spacing:0px;fill:#ffffff;fill-opacity:1;stroke:none;font-family:OpenSymbol;-inkscape-font-specification:OpenSymbol"
       x="82.669243"
       y="934.4115"
       id="text5352"
       sodipodi:linespacing="125%"><tspan
         sodipodi:role="line"
         id="tspan5354"
         x="82.669243"
         y="934.4115" /></text>
  </g>
  <g
     inkscape:groupmode="layer"
     id="layer4"
     inkscape:label="CompanyName"
     transform="translate(-16.155341,-452.41852)">
    <text
       xml:space="preserve"
       style="font-size:40px;font-style:normal;font-variant:normal;font-weight:normal;font-stretch:normal;line-height:125%;letter-spacing:0px;word-spacing:0px;fill:#000000;fill-opacity:1;stroke:none;font-family:Engravers MT;-inkscape-font-specification:Engravers MT"
       x="422.73981"
       y="577.6991"
       id="text5276"
       sodipodi:linespacing="125%"><tspan
         sodipodi:role="line"
         id="tspan5278"
         x="422.73981"
         y="577.6991" /></text>
    <text
       xml:space="preserve"
       style="font-size:312.85107422px;font-style:normal;font-variant:normal;font-weight:normal;font-stretch:normal;line-height:125%;letter-spacing:15.64255428px;word-spacing:0px;fill:#007932;fill-opacity:1;stroke:none;font-family:Arabic Typesetting;-inkscape-font-specification:Arabic Typesetting"
       x="337.65671"
       y="649.87115"
       id="text5336"
       sodipodi:linespacing="125%"
       transform="scale(1.0703329,0.93428879)"><tspan
         sodipodi:role="line"
         id="tspan5338"
         x="337.65671"
         y="649.87115">B</tspan></text>
    <text
       xml:space="preserve"
       style="font-size:72px;font-style:normal;font-variant:normal;font-weight:normal;font-stretch:normal;line-height:125%;letter-spacing:0px;word-spacing:0px;fill:#323d4e;fill-opacity:1;stroke:none;font-family:Rockwell;-inkscape-font-specification:Rockwell"
       x="359.86133"
       y="742.84479"
       id="text5340"
       sodipodi:linespacing="125%"><tspan
         sodipodi:role="line"
         id="tspan5342"
         x="359.86133"
         y="742.84479" /></text>
    <text
       xml:space="preserve"
       style="font-size:203.09889221px;font-style:normal;font-variant:normal;font-weight:normal;font-stretch:normal;line-height:125%;letter-spacing:0px;word-spacing:0px;fill:#007932;fill-opacity:1;stroke:none;font-family:Arabic Typesetting;-inkscape-font-specification:Arabic Typesetting"
       x="502.50693"
       y="605.26929"
       id="text3947"
       sodipodi:linespacing="125%"
       transform="scale(0.99679024,1.0032201)"><tspan
         sodipodi:role="line"
         id="tspan3949"
         x="502.50693"
         y="605.26929">OSTON</tspan></text>
    <text
       xml:space="preserve"
       style="font-size:144px;font-style:normal;font-variant:normal;font-weight:normal;font-stretch:normal;line-height:125%;letter-spacing:0px;word-spacing:0px;fill:#000000;fill-opacity:1;stroke:none;font-family:Bodoni MT;-inkscape-font-specification:Bodoni MT"
       x="364.98483"
       y="-77.380531"
       id="text3951"
       sodipodi:linespacing="125%"
       transform="translate(16.155341,452.41852)"><tspan
         sodipodi:role="line"
         id="tspan3953"
         x="364.98483"
         y="-77.380531" /></text>
    <text
       xml:space="preserve"
       style="font-size:90.6681366px;font-style:normal;font-variant:normal;font-weight:normal;font-stretch:normal;line-height:125%;letter-spacing:0px;word-spacing:0px;fill:#002e00;fill-opacity:1;stroke:none;font-family:Bodoni MT;-inkscape-font-specification:Bodoni MT"
       x="393.57819"
       y="669.86401"
       id="text3959"
       sodipodi:linespacing="125%"
       transform="scale(0.94656688,1.0564494)"><tspan
         sodipodi:role="line"
         id="tspan3961"
         x="393.57819"
         y="669.86401">Microtechnology</tspan></text>
  </g>
</svg>
